<?xml version="1.0" encoding="UTF-8"?>
<!DOCTYPE svg PUBLIC "-//W3C//DTD SVG 1.1//EN" "http://www.w3.org/Graphics/SVG/1.1/DTD/svg11.dtd">
<svg xmlns="http://www.w3.org/2000/svg" version="1.1" width="192px" height="192px" style="shape-rendering:geometricPrecision; text-rendering:geometricPrecision; image-rendering:optimizeQuality; fill-rule:evenodd; clip-rule:evenodd" xmlns:xlink="http://www.w3.org/1999/xlink">
<g><path style="opacity:0.994" fill="#6a3de8" d="M 81.5,-0.5 C 90.8333,-0.5 100.167,-0.5 109.5,-0.5C 154.5,9.16667 181.833,36.5 191.5,81.5C 191.5,90.8333 191.5,100.167 191.5,109.5C 181.833,154.5 154.5,181.833 109.5,191.5C 100.167,191.5 90.8333,191.5 81.5,191.5C 36.5,181.833 9.16667,154.5 -0.5,109.5C -0.5,100.167 -0.5,90.8333 -0.5,81.5C 9.16667,36.5 36.5,9.16667 81.5,-0.5 Z"/></g>
<g><path style="opacity:1" fill="#fbfafe" d="M 78.5,48.5 C 86.6367,48.1522 94.6367,48.9855 102.5,51C 106.213,52.6912 107.379,55.5245 106,59.5C 104.989,60.3366 103.822,60.67 102.5,60.5C 101.624,67.3406 100.624,74.174 99.5,81C 99.8333,82.5 100.167,84 100.5,85.5C 107.7,83.9845 113.534,80.3178 118,74.5C 122.418,67.6631 125.752,60.3298 128,52.5C 131.448,48.2091 135.448,47.5424 140,50.5C 138.734,64.5275 132.567,76.0275 121.5,85C 117.779,87.5272 113.779,89.5272 109.5,91C 117.388,95.2462 122.555,101.746 125,110.5C 127.633,115.067 131.467,116.567 136.5,115C 140.314,112.02 143.981,108.854 147.5,105.5C 150.881,107.914 151.381,110.914 149,114.5C 142.888,123.639 134.388,127.473 123.5,126C 120.098,124.6 117.264,122.433 115,119.5C 111.397,113.293 108.064,106.96 105,100.5C 103.504,97.9976 101.337,96.3309 98.5,95.5C 96.9189,101.059 95.4189,106.725 94,112.5C 88.618,124.419 79.4513,128.919 66.5,126C 59.0018,122.867 55.1684,117.367 55,109.5C 56.0295,106.125 58.1961,104.958 61.5,106C 63.7798,109.947 66.4465,113.613 69.5,117C 75.6932,118.654 79.8599,116.487 82,110.5C 83.5737,105.616 84.407,100.616 84.5,95.5C 80.901,96.0624 78.901,94.5624 78.5,91C 79.4292,87.0735 81.9292,84.9068 86,84.5C 87.4956,75.8714 88.6623,67.2048 89.5,58.5C 83.3617,57.7321 77.695,58.8988 72.5,62C 70.5559,63.722 69.5559,65.8887 69.5,68.5C 70.5014,72.1496 71.0014,75.8163 71,79.5C 67.6667,83.5 64.3333,83.5 61,79.5C 55.8874,63.0632 61.7207,52.7299 78.5,48.5 Z"/></g>
</svg>
